<?xml version="1.0" encoding="UTF-8"?>
<svg id="Ebene_1" xmlns="http://www.w3.org/2000/svg" version="1.1" viewBox="0 0 17 17">
  <!-- Generator: Adobe Illustrator 29.2.1, SVG Export Plug-In . SVG Version: 2.1.0 Build 116)  -->
  <defs>
    <style>
      .st0 {
        fill: #e56a54;
      }
    </style>
  </defs>
  <path class="st0" d="M15.3,16.7c-1.6,0-3.3-.4-5.1-1.3-1.8-.9-3.4-2.1-5-3.6-1.5-1.5-2.7-3.2-3.6-5C.8,5.1.4,3.4.4,1.8s.1-.6.3-.8c.2-.2.5-.3.8-.3h2.2c.3,0,.5,0,.7.3.2.2.3.4.4.7l.5,2.2c0,.3,0,.5,0,.7,0,.2-.2.4-.3.5l-2.2,2.1c.5.8.9,1.5,1.5,2.2.5.7,1,1.3,1.6,1.9.6.6,1.3,1.2,2,1.8.7.5,1.5,1,2.4,1.5l2.2-2.2c.2-.2.3-.3.5-.4.2,0,.4,0,.6,0l1.9.4c.3,0,.5.2.7.4.2.2.3.5.3.8v2.1c0,.3-.1.6-.3.8-.2.2-.5.3-.8.3ZM2.4,6.5l2.1-2c0,0,0-.1.1-.2,0,0,0-.2,0-.2l-.5-2.3c0-.1,0-.2-.1-.2,0,0-.2,0-.3,0H1.4c0,0-.1,0-.2,0,0,0,0,.1,0,.2,0,.7,0,1.4.3,2.2.2.8.5,1.6.9,2.5ZM11,14.9c.7.4,1.4.6,2.3.8.8.2,1.5.3,2.1.3,0,0,.1,0,.2,0,0,0,0-.1,0-.2v-2.2c0-.1,0-.2,0-.3,0,0-.1-.1-.2-.1l-2-.4c0,0-.1,0-.2,0,0,0-.1,0-.2.1l-2,2.1Z"/>
</svg>