<svg width="15" height="19" viewBox="0 0 15 19" fill="none" xmlns="http://www.w3.org/2000/svg">
<path d="M7.40721 9.5657C7.82154 9.5657 8.17396 9.41811 8.46446 9.12294C8.7548 8.82778 8.89996 8.47295 8.89996 8.05845C8.89996 7.64395 8.75238 7.29153 8.45721 7.00119C8.16204 6.71086 7.80721 6.5657 7.39271 6.5657C6.97838 6.5657 6.62596 6.7132 6.33546 7.0082C6.04513 7.30336 5.89996 7.6582 5.89996 8.0727C5.89996 8.4872 6.04754 8.83961 6.34271 9.12995C6.63788 9.42045 6.99271 9.5657 7.40721 9.5657ZM7.39996 17.9367C9.36029 16.2277 10.9049 14.5043 12.0337 12.7664C13.1625 11.0286 13.727 9.52194 13.727 8.24644C13.727 6.34928 13.1284 4.78395 11.9312 3.55045C10.734 2.31695 9.22363 1.7002 7.39996 1.7002C5.57629 1.7002 4.06588 2.31695 2.86871 3.55045C1.67154 4.78395 1.07296 6.34928 1.07296 8.24644C1.07296 9.52194 1.64346 11.0286 2.78446 12.7664C3.92563 14.5043 5.46413 16.2277 7.39996 17.9367ZM7.39996 18.9694C5.04996 16.8913 3.27979 14.9531 2.08946 13.1549C0.898961 11.3569 0.303711 9.72078 0.303711 8.24644C0.303711 6.13094 0.992544 4.38603 2.37021 3.0117C3.74771 1.63736 5.42429 0.950195 7.39996 0.950195C9.37563 0.950195 11.0522 1.63736 12.4297 3.0117C13.8074 4.38603 14.4962 6.13094 14.4962 8.24644C14.4962 9.72078 13.901 11.3569 12.7105 13.1549C11.5201 14.9531 9.74996 16.8913 7.39996 18.9694Z" fill="#656A70"/>
</svg>
