<svg width="16" height="18" viewBox="0 0 16 18" fill="none" xmlns="http://www.w3.org/2000/svg">
<path d="M7.40039 17.8809C5.52472 17.6372 3.97247 16.811 2.74364 15.4021C1.51481 13.9931 0.900391 12.3425 0.900391 10.4501C0.900391 9.43347 1.10106 8.45947 1.50239 7.52814C1.90372 6.59664 2.46589 5.7783 3.18889 5.07314L4.25814 6.14239C3.64397 6.70272 3.18081 7.35305 2.86864 8.09339C2.55647 8.83372 2.40039 9.6193 2.40039 10.4501C2.40039 11.9168 2.86864 13.2095 3.80514 14.3281C4.74164 15.4466 5.94006 16.1309 7.40039 16.3809V17.8809ZM9.40039 17.9001V16.4001C10.8441 16.1078 12.0383 15.4081 12.9831 14.3011C13.928 13.1941 14.4004 11.9105 14.4004 10.4501C14.4004 8.78347 13.8171 7.3668 12.6504 6.20014C11.4837 5.03347 10.0671 4.45014 8.40039 4.45014H8.04664L9.39664 5.80014L8.34264 6.85389L5.18889 3.70014L8.34264 0.546387L9.39664 1.60014L8.04664 2.95014H8.40039C10.4927 2.95014 12.2658 3.67705 13.7196 5.13089C15.1735 6.58472 15.9004 8.3578 15.9004 10.4501C15.9004 12.3321 15.2844 13.9745 14.0524 15.3771C12.8202 16.7796 11.2696 17.6206 9.40039 17.9001Z" fill="#181B20" fill-opacity="0.5"/>
</svg>
