<?xml version="1.0" encoding="UTF-8"?>
<svg id="Ebene_1" xmlns="http://www.w3.org/2000/svg" version="1.1" viewBox="0 0 19 15">
  <!-- Generator: Adobe Illustrator 29.2.1, SVG Export Plug-In . SVG Version: 2.1.0 Build 116)  -->
  <defs>
    <style>
      .st0 {
        fill: #e56a54;
      }
    </style>
  </defs>
  <path class="st0" d="M1.8,14.7c-.4,0-.7-.1-1-.4-.3-.3-.4-.6-.4-1V2.1c0-.4.1-.7.4-1,.3-.3.6-.4,1-.4h15.2c.4,0,.7.1,1,.4.3.3.4.6.4,1v11.2c0,.4-.1.7-.4,1-.3.3-.6.4-1,.4H1.8ZM9.4,7.6L1.2,2.1v11.3c0,.2,0,.3.2.4.1.1.3.2.4.2h15.2c.2,0,.3,0,.4-.2.1-.1.2-.3.2-.4V2.1l-8.2,5.5ZM9.4,6.7l7.9-5.2H1.5l7.9,5.2ZM1.2,2.1v-.6,11.8c0,.2,0,.3.2.4.1.1.3.2.4.2h-.6V2.1Z"/>
</svg>